<svg xmlns="http://www.w3.org/2000/svg" width="1019" height="1028" fill="none"><path fill="url(#a)" d="M410.9 223.4 195.4 101.5l-1 111.7 215.5 121.9 1-111.7Z" opacity=".7"/><path fill="#F5F5F5" d="m250.3 159.6 64.8 36.7-.1 13.4-64.8-36.7.1-13.4Zm-.2 26.9 138 78.1-.1 13.6-138-78.1.1-13.6Z" opacity=".95"/><path fill="#09354E" d="M238.8 163.7c-.1 9.2-5.6 13.6-12.4 9.7-6.8-3.8-12.2-14.4-12.1-23.6.1-9.2 5.6-13.6 12.4-9.7 6.8 3.8 12.2 14.4 12.1 23.6Z"/><path fill="#BEBEBE" d="M609.3 39.4c-40.6 7.9-131.9 18.1-171.7-4.4.3 159.2 39.3 385.1 166.8 571.4 129.5-40.9 172-220.6 175-377.9-39.8-22.6-130-135.5-170.1-189.1Z" opacity=".7"/><path fill="url(#b)" d="M559.7 72.4C519.1 80.3 427.8 90.5 388 68c.3 159.2 39.3 385.1 166.8 571.4 129.5-40.9 172-220.7 175-377.9C690 238.9 599.8 126 559.7 72.4Z" opacity=".9"/><path fill="#787878" d="M729.9 261.4c-39.9-22.6-130-135.4-170.1-189l-4.9 566.9c129.4-40.8 171.9-220.6 175-377.9Z" opacity=".9"/><path fill="url(#c)" d="M329.3 300.7 31.7 129l.1 155.1 271.3 156.6 26.3 38.9-.1-178.9Z" opacity=".8"/><path fill="#06B6D4" d="M0 189.4v-42.1l112.3 64.8v42.1L0 189.4Z"/><path fill="#F5F5F5" d="m252.8 294.3-65.2-37.6v13.6l65.2 37.6v-13.6Zm0 27.3-125.7-72.5v13.6l125.7 72.5v-13.6Zm0 27.2-152.3-87.9v13.6l152.3 87.9v-13.6Z" opacity=".95"/><path fill="#06B6D4" d="M263 327.684c0 12.8 7.6 27.5 16.9 32.9 9.3 5.4 16.9-.6 16.9-13.4s-7.6-27.5-16.9-32.9c-9.3-5.4-16.9.6-16.9 13.4Z"/><path fill="url(#d)" d="M434.2 540.969c0 4.5-.1 9-.4 13.2 43 32.7 76.1 102.8 76.1 164.5 0 67.2-39.3 98.9-87.8 70.9-.1-.1-.2-.1-.3-.2l-304.7-175.7c-.1-.1-.2-.1-.4-.2-54.5-31.5-98.7-118.2-98.7-193.7 0-70.7 38.8-106.6 88.5-84.9 6.1-48.5 38.6-69.4 77.8-46.7 18.8 10.9 36.1 30 49.6 53 19.6-29.1 53-36.5 90.8-14.7 60.5 34.8 109.5 130.9 109.5 214.5Z" opacity=".5"/><path fill="url(#e)" d="M416.2 577.969c0 4.5-.1 9-.4 13.2 43 32.7 76.1 102.8 76.1 164.5 0 67.2-39.3 98.9-87.8 70.9-.1-.1-.2-.1-.3-.2l-304.7-175.7c-.1-.1-.2-.1-.4-.2-54.5-31.5-98.7-118.2-98.7-193.7 0-70.7 38.8-106.6 88.5-84.9 6.1-48.5 38.6-69.4 77.8-46.7 18.8 10.9 36.1 30 49.6 53 19.6-29.1 53-36.5 90.8-14.7 60.5 34.8 109.5 130.9 109.5 214.5Z" opacity=".8"/><path fill="#09354E" d="m168.595 0 27.8 54.6c3.8 7.5 3.2 15-1.4 16.8-4.6 1.8-11.4-2.9-15.2-10.4l-.3-.7v60.6c0 6.9-4.8 9.7-10.8 6.3-6-3.5-10.8-11.8-10.8-18.7V47.9l-.3.3c-3.8 3.1-10.7-.1-15.2-7.2-4.6-7.1-5.2-15.3-1.4-18.4l27.6-22.6Z"/><path fill="#09354E" fill-opacity=".9" d="m542.201 828.811-46.4-26.8v-15.7l46.4 26.8c3.8 2.2 9.3 6.6 14 13.4 5.1 7.3 8.7 16.5 8.7 26.5 0 11-2.8 17.3-8.2 19.1-5 1.7-10.9-1.2-14.6-3.3l-19.1-11-.1-.1c-1.6-1-4.2-1.9-6.3-1.3-1.7.5-3.6 2.2-3.6 8.3 0 6.1 1.9 9.9 3.5 12.1 2 2.8 4.6 4.8 6.2 5.6l.2.1 58.3 33.7v15.7l-58-33.5c-4-2.1-9.7-6.5-14.7-13.5-5.4-7.6-9.2-17.3-9.1-28.1 0-10.7 3.7-16.2 9.1-17.7 5-1.4 10.7.6 14.7 3.1l18.9 10.9c2.7 1.6 4.8 2.3 6.1 1.8 1-.3 3-1.8 3-9.8 0-5.1-1.7-8.5-3.2-10.8-1.8-2.6-4.3-4.6-5.8-5.5Z" opacity=".85"/><path fill="#12ACAC" d="M505.8 798.11c0 12.9-7.6 19-16.9 13.7-9.3-5.4-16.9-20.2-16.9-33.2 0-12.9 7.6-19 16.9-13.7 9.3 5.4 16.9 20.3 16.9 33.2Zm99 139.001c0 12.9-7.6 19-16.9 13.7-9.3-5.4-16.9-20.2-16.9-33.2 0-12.9 7.6-19 16.9-13.7 9.3 5.4 16.9 20.3 16.9 33.2Z"/><path fill="#B8B8B8" d="m116.7 440 186.9 107.9v346.3l-186.9-108V440Z" opacity=".95"/><path fill="#06B6D4" d="M232.1 565.4c0 17.3-10 25.5-22.3 18.3-12.3-7.2-22.3-27-22.3-44.3 0-17.3 10-25.5 22.3-18.3 12.3 7.2 22.3 27 22.3 44.3Zm-22.3 32.2c-19.9-11.6-36.3-.7-39.2 24.3-.5 4.3 2.8 10.1 6.8 12.4l64.9 37.9c4 2.3 7.3.5 6.8-4.5-3-28.5-19.5-58.5-39.3-70.1Z"/><path fill="#fff" d="m154.2 664.6 111.4 64.3v13.6l-111.4-64.3v-13.6Zm11.3 33.5 88.3 50.9v13.6l-88.3-50.9v-13.6Z" opacity=".15"/><path fill="#06B6D4" d="M188 755.3 58 680.2v38.7L188 794v-38.7Z"/><path fill="#B8B8B8" d="m640 427 200.7 110.5.1 368.7-200.7-110.4L640 427Z" opacity=".8"/><path fill="url(#f)" d="m666 642.5 151.3 83.3.4 132.2-151.3-83.3-.4-132.2Z" opacity=".95"/><path fill="#F5F5F5" d="m668.7 554.5 70 38.5v13.6l-70-38.5v-13.6Zm.3 27 70 38.5v13.6l-70-38.5v-13.6Zm-.1 26 132.8 73.1v13.6l-132.8-73.1v-13.6Z" opacity=".95"/><path fill="#09354E" d="m640 427 200.7 110.5.2 63.7-200.8-110.4-.1-63.8Z"/><path fill="#F5F5F5" d="M690.2 486.9c0 9.6-5.7 14.3-12.7 10.4-7-3.9-12.8-14.8-12.8-24.5 0-9.6 5.7-14.3 12.7-10.4 7.1 3.9 12.8 14.9 12.8 24.5Z" opacity=".95"/><path fill="#06B6D4" d="m759.2 641.3-.2-54.8 136.1 74.9.2 54.8-136.1-74.9Z"/><path fill="#09354E" d="M882.8 246.447c6 3.4 10.8 11.8 10.8 18.7v30.5l20.2 11.6c6 3.4 10.8 11.8 10.8 18.7 0 6.9-4.8 9.7-10.8 6.3l-20.2-11.6v30.5c0 6.9-4.8 9.7-10.8 6.3-6-3.4-10.8-11.8-10.8-18.7v-30.5l-20.2-11.7c-6-3.4-10.8-11.8-10.8-18.7 0-6.9 4.8-9.7 10.8-6.3l20.2 11.6v-30.5c0-6.8 4.8-9.6 10.8-6.2Zm-41.505 781.203-27.8-54.605c-3.8-7.5-3.2-15 1.4-16.8 4.6-1.8 11.4 2.9 15.2 10.4l.3.7v-60.6c0-6.9 4.8-9.7 10.8-6.3 6 3.5 10.8 11.8 10.8 18.7v60.6l.3-.3c3.8-3.1 10.7.1 15.2 7.2 4.6 7.1 5.2 15.295 1.4 18.395l-27.6 22.61Z"/><path fill="url(#g)" d="M1018.4 505.9 803 384l-1 111.7 215.5 121.9.9-111.7Z" opacity=".8"/><path fill="#F5F5F5" d="m857.9 442.1 64.8 36.7-.1 13.4-64.8-36.7.1-13.4Zm-.2 26.9 138 78.1-.1 13.6-138-78.1.1-13.6Z" opacity=".95"/><path fill="#09354E" d="M846.4 446.2c-.1 9.2-5.6 13.6-12.4 9.7-6.8-3.8-12.2-14.4-12.1-23.6.1-9.2 5.6-13.6 12.4-9.7 6.8 3.8 12.2 14.4 12.1 23.6Z"/><defs><linearGradient id="a" x1="326.692" x2="278.583" y1="175.765" y2="260.785" gradientUnits="userSpaceOnUse"><stop stop-color="#B8B8B8"/><stop offset="1" stop-color="#B8B8B8" stop-opacity=".6"/></linearGradient><linearGradient id="b" x1="558.9" x2="558.9" y1="68" y2="639.4" gradientUnits="userSpaceOnUse"><stop stop-color="#878787"/><stop offset="1" stop-color="#7D7D7D" stop-opacity=".6"/></linearGradient><linearGradient id="c" x1="264.364" x2="162" y1="238.594" y2="310.3" gradientUnits="userSpaceOnUse"><stop stop-color="#B8B8B8"/><stop offset="1" stop-color="#B8B8B8" stop-opacity=".7"/></linearGradient><linearGradient id="d" x1="492.011" x2="182.583" y1="350.003" y2="643.502" gradientUnits="userSpaceOnUse"><stop stop-color="#C6C6C6"/><stop offset="1" stop-color="#C6C6C6" stop-opacity=".3"/></linearGradient><linearGradient id="e" x1="474" x2="164.573" y1="387.003" y2="680.502" gradientUnits="userSpaceOnUse"><stop stop-color="#fff"/><stop offset="1" stop-color="#EFEFEF" stop-opacity=".65"/></linearGradient><linearGradient id="f" x1="692.68" x2="782.83" y1="645.413" y2="837.652" gradientUnits="userSpaceOnUse"><stop stop-color="#F5F5F5"/><stop offset="1" stop-color="#F5F5F5" stop-opacity=".7"/></linearGradient><linearGradient id="g" x1="934.271" x2="886.162" y1="458.273" y2="543.293" gradientUnits="userSpaceOnUse"><stop stop-color="#B8B8B8"/><stop offset="1" stop-color="#B8B8B8" stop-opacity=".5"/></linearGradient></defs></svg>